<svg width="428" height="428" viewBox="0 0 428 428" fill="none" xmlns="http://www.w3.org/2000/svg">
<path d="M214 161.093C203.536 161.093 193.307 164.196 184.607 170.01C175.906 175.823 169.125 184.086 165.121 193.753C161.116 203.421 160.069 214.059 162.11 224.322C164.151 234.584 169.19 244.011 176.589 251.411C183.988 258.81 193.416 263.849 203.678 265.89C213.941 267.931 224.579 266.884 234.247 262.879C243.914 258.875 252.177 252.094 257.99 243.393C263.804 234.693 266.907 224.464 266.907 214C266.907 207.052 265.538 200.172 262.879 193.753C260.221 187.335 256.324 181.502 251.411 176.589C246.498 171.676 240.665 167.779 234.247 165.121C227.828 162.462 220.948 161.093 214 161.093ZM425.84 108.827C425.728 92.3521 422.694 76.0281 416.88 60.6133C412.598 49.3335 405.973 39.09 397.441 30.5586C388.91 22.0272 378.666 15.4019 367.387 11.12C351.972 5.30585 335.648 2.27219 319.173 2.15996C291.653 0.666625 283.547 0.666626 214 0.666626C144.453 0.666626 136.347 0.666625 108.827 2.15996C92.3522 2.27219 76.0282 5.30585 60.6133 11.12C49.3336 15.4019 39.09 22.0272 30.5586 30.5586C22.0273 39.09 15.402 49.3335 11.12 60.6133C5.30591 76.0281 2.27225 92.3521 2.16002 108.827C0.666686 136.347 0.666687 144.453 0.666687 214C0.666687 283.547 0.666686 291.653 2.16002 319.173C2.38965 335.706 5.41921 352.08 11.12 367.6C15.383 378.828 22.0028 389.012 30.5334 397.467C39.0281 406.049 49.2937 412.674 60.6133 416.88C76.0282 422.694 92.3522 425.728 108.827 425.84C136.347 427.333 144.453 427.333 214 427.333C283.547 427.333 291.653 427.333 319.173 425.84C335.648 425.728 351.972 422.694 367.387 416.88C378.706 412.674 388.972 406.049 397.467 397.467C405.997 389.012 412.617 378.828 416.88 367.6C422.688 352.109 425.722 335.717 425.84 319.173C427.333 291.653 427.333 283.547 427.333 214C427.333 144.453 427.333 136.347 425.84 108.827ZM371.653 279.493C370.969 292.658 368.159 305.626 363.333 317.893C359.192 328.127 353.035 337.423 345.229 345.229C337.423 353.035 328.127 359.192 317.893 363.333C305.51 367.89 292.47 370.411 279.28 370.8C262.427 370.8 257.947 370.8 214 370.8C170.053 370.8 165.573 370.8 148.72 370.8C135.53 370.411 122.49 367.89 110.107 363.333C99.5276 359.402 89.9739 353.13 82.16 344.987C74.4302 337.333 68.4607 328.088 64.6667 317.893C60.0919 305.522 57.6396 292.468 57.4133 279.28C57.4133 262.427 57.4133 257.947 57.4133 214C57.4133 170.053 57.4133 165.573 57.4133 148.72C57.6396 135.532 60.0919 122.477 64.6667 110.107C68.598 99.5275 74.8699 89.9739 83.0134 82.16C90.7005 74.4719 99.9363 68.5086 110.107 64.6666C122.49 60.1099 135.53 57.5884 148.72 57.2C165.573 57.2 170.053 57.2 214 57.2C257.947 57.2 262.427 57.2 279.28 57.2C292.47 57.5884 305.51 60.1099 317.893 64.6666C328.472 68.598 338.026 74.8698 345.84 83.0133C353.57 90.6666 359.539 99.9121 363.333 110.107C367.89 122.49 370.412 135.53 370.8 148.72C370.8 165.573 370.8 170.053 370.8 214C370.8 257.947 372.293 262.427 371.653 279.28V279.493ZM337.52 120.773C334.98 113.882 330.975 107.624 325.782 102.431C320.589 97.238 314.331 93.2333 307.44 90.6933C297.978 87.4135 288.013 85.8248 278 86C261.36 86 256.667 86 214 86C171.333 86 166.64 86 150 86C139.936 86.0983 129.969 87.9761 120.56 91.5466C113.774 93.9713 107.583 97.8125 102.396 102.815C97.2101 107.817 93.148 113.866 90.48 120.56C87.3819 130.061 85.8684 140.007 86 150C86 166.64 86 171.333 86 214C86 256.667 86 261.36 86 278C86.2115 288.052 88.0857 298 91.5467 307.44C94.0867 314.331 98.0914 320.589 103.285 325.782C108.478 330.975 114.736 334.98 121.627 337.52C130.729 340.867 140.307 342.74 150 343.067C166.64 343.067 171.333 343.067 214 343.067C256.667 343.067 261.36 343.067 278 343.067C288.064 342.968 298.031 341.09 307.44 337.52C314.331 334.98 320.589 330.975 325.782 325.782C330.975 320.589 334.98 314.331 337.52 307.44C341.091 298.03 342.968 288.064 343.067 278C343.067 261.36 343.067 256.667 343.067 214C343.067 171.333 343.067 166.64 343.067 150C343.073 139.926 341.192 129.941 337.52 120.56V120.773ZM214 295.493C203.308 295.493 192.721 293.384 182.846 289.286C172.971 285.188 164.001 279.182 156.451 271.612C148.9 264.041 142.918 255.056 138.846 245.17C134.774 235.284 132.692 224.692 132.72 214C132.72 197.873 137.505 182.109 146.469 168.703C155.433 155.296 168.173 144.851 183.077 138.69C197.98 132.528 214.377 130.927 230.191 134.088C246.004 137.25 260.525 145.033 271.913 156.451C283.302 167.87 291.046 182.41 294.167 198.233C297.287 214.055 295.643 230.447 289.442 245.334C283.241 260.221 272.763 272.934 259.333 281.863C245.904 290.792 230.127 295.535 214 295.493ZM299.333 148.507C294.617 148.007 290.253 145.781 287.081 142.255C283.909 138.73 282.154 134.156 282.154 129.413C282.154 124.671 283.909 120.097 287.081 116.571C290.253 113.046 294.617 110.819 299.333 110.32C304.049 110.819 308.414 113.046 311.585 116.571C314.757 120.097 316.512 124.671 316.512 129.413C316.512 134.156 314.757 138.73 311.585 142.255C308.414 145.781 304.049 148.007 299.333 148.507Z" fill="black"/>
</svg>
