<svg width="428" height="348" viewBox="0 0 428 348" fill="none" xmlns="http://www.w3.org/2000/svg">
<path d="M427.333 41.7334C411.298 48.69 394.34 53.2888 376.987 55.3867C395.294 44.4495 409.014 27.2434 415.6 6.96002C398.396 17.2014 379.563 24.417 359.92 28.2933C346.79 14.0549 329.306 4.57701 310.209 1.34618C291.113 -1.88464 271.484 1.31433 254.401 10.4414C237.318 19.5685 223.748 34.1073 215.818 51.7779C207.889 69.4484 206.049 89.251 210.587 108.08C175.801 106.321 141.775 97.263 110.718 81.4957C79.6612 65.7284 52.2687 43.6041 30.32 16.56C22.6216 30.0036 18.5764 45.2282 18.5867 60.72C18.5594 75.1068 22.09 89.2772 28.8641 101.969C35.6382 114.662 45.4457 125.482 57.4133 133.467C43.5035 133.088 29.8909 129.356 17.7333 122.587V123.653C17.8376 143.811 24.9012 163.314 37.7294 178.863C50.5575 194.413 68.3628 205.054 88.1333 208.987C80.5228 211.303 72.6213 212.524 64.6667 212.613C59.1603 212.549 53.6677 212.05 48.24 211.12C53.8701 228.46 64.7653 243.614 79.4096 254.473C94.0539 265.332 111.719 271.356 129.947 271.707C99.167 295.926 61.1655 309.144 22 309.253C14.869 309.277 7.74368 308.849 0.666656 307.973C40.6545 333.792 87.2547 347.498 134.853 347.44C167.7 347.781 200.286 341.574 230.706 329.18C261.127 316.787 288.774 298.456 312.031 275.259C335.288 252.061 353.69 224.462 366.161 194.073C378.633 163.684 384.923 131.114 384.667 98.2667C384.667 94.64 384.667 90.8 384.667 86.96C401.407 74.476 415.845 59.1717 427.333 41.7334Z" fill="black"/>
</svg>
